inDegrees=no
num_controls=7
num_derivatives=13
num_iterations=115
num_multipliers=7
num_parameters=0
num_slacks=7
num_states=26
objective=0.469975
objective_accelerations=0.062808
objective_balance=0.002013
objective_effort=0.020106
objective_height=0.375466
objective_ligament=0.009582
solver_duration=1636.976771
status=Solve_Succeeded
success=true
DataType=double
version=3
OpenSimVersion=4.5
endheader
time	/jointset/ground_pelvis/pelvis_tilt/value	/jointset/ground_pelvis/pelvis_tx/value	/jointset/ground_pelvis/pelvis_ty/value	/jointset/hip_l/hip_flexion_l/value	/jointset/hip_l/hip_adduction_l/value	/jointset/hip_l/hip_rotation_l/value	/jointset/back/lumbar_extension/value	/jointset/patellofemoral_l/patellar_flexion_l/value	/jointset/knee_l/knee_flexion_l/value	/jointset/knee_l/knee_adduction_l/value	/jointset/knee_l/knee_rotation_l/value	/jointset/ankle_l/ankle_angle_l/value	/jointset/subtalar_l/subtalar_angle_l/value	/jointset/ground_pelvis/pelvis_tilt/speed	/jointset/ground_pelvis/pelvis_tx/speed	/jointset/ground_pelvis/pelvis_ty/speed	/jointset/hip_l/hip_flexion_l/speed	/jointset/hip_l/hip_adduction_l/speed	/jointset/hip_l/hip_rotation_l/speed	/jointset/back/lumbar_extension/speed	/jointset/patellofemoral_l/patellar_flexion_l/speed	/jointset/knee_l/knee_flexion_l/speed	/jointset/knee_l/knee_adduction_l/speed	/jointset/knee_l/knee_rotation_l/speed	/jointset/ankle_l/ankle_angle_l/speed	/jointset/subtalar_l/subtalar_angle_l/speed	/forceset/tau_hip_flexion_l	/forceset/tau_hip_adduction_l	/forceset/tau_hip_rotation_l	/forceset/tau_knee_flexion_l	/forceset/tau_ankle_angle_l	/forceset/tau_subtalar_angle_l	/forceset/tau_lumbar_extension	lambda_cid13_p0	lambda_cid13_p1	lambda_cid13_p2	lambda_cid13_p3	lambda_cid13_p4	lambda_cid13_p5	lambda_cid14_p0	/jointset/ground_pelvis/pelvis_tilt/accel	/jointset/ground_pelvis/pelvis_tx/accel	/jointset/ground_pelvis/pelvis_ty/accel	/jointset/hip_l/hip_flexion_l/accel	/jointset/hip_l/hip_adduction_l/accel	/jointset/hip_l/hip_rotation_l/accel	/jointset/back/lumbar_extension/accel	/jointset/patellofemoral_l/patellar_flexion_l/accel	/jointset/knee_l/knee_flexion_l/accel	/jointset/knee_l/knee_adduction_l/accel	/jointset/knee_l/knee_rotation_l/accel	/jointset/ankle_l/ankle_angle_l/accel	/jointset/subtalar_l/subtalar_angle_l/accel	gamma_cid13_p0	gamma_cid13_p1	gamma_cid13_p2	gamma_cid13_p3	gamma_cid13_p4	gamma_cid13_p5	gamma_cid14_p0
0	0.05060405522043211	0.1065952857979796	0.9040777474609634	0.1266922784136757	-0.3598491310543724	-0.240738909589173	-0.2144969558742783	0.2051545070141946	0.2051545070141877	-0.1529412368487115	-0.1703870711461124	0.09024313228550125	0.09027990254363026	0	0	0	0	0	0	0	0	0	0	0	0	0	0.1154693720332614	-0.04816515331518309	-0.006533350372136949	-0.2126701051933026	0.09508520684804606	-0.06534516612673573	-0.05401388002763894	-0.8080037150877222	27.01164785131823	-2.863498194836355	19.73859302704966	-450.5300616512205	-59.21880224488963	-26.44160375116422	-6.108706463294775	-2.53052117482425	-0.8678205368719227	14.39727537803816	0.01222899825472771	2.45642035004579	-3.986926250878895	7.218482392423506	7.218482392423692	1.854988545763923	-0.4261529452627697	-0.3963742294560926	-0.1400280389539984	1.759765307972155e-08	2.18520576514736e-07	-5.029804312746755e-08	5.594687197089776e-09	8.318780020566753e-08	9.2893811944213e-08	3.120925736055059e-08
0.01	0.05030759772256808	0.1064705448871448	0.9040355756080377	0.1273943409965233	-0.3598479153386754	-0.2406130686631889	-0.2147005294434782	0.2055052144164658	0.205505214416455	-0.1528502601107533	-0.170401427339863	0.09022203474642537	0.090273124365207	-0.05911331910574458	-0.02480534668440015	-0.008410621136117073	0.1398010615424235	0.0002425209533930916	0.02505663362285537	-0.04040613273468285	0.06975923372957139	0.06975923372957032	0.01808762370728612	-0.002825221085203684	-0.004203285846334975	-0.001349883958996541	0.1138097757955381	-0.0584777725355996	-0.006327730561750946	-0.2125344070275312	0.09362837996137462	-0.05568324937280313	-0.05235268651998228	-0.6588456685205761	22.70616333286896	-2.082053821088948	18.51544195879907	-450.8305343275908	-68.15640308908776	-26.44132746651837	-5.785918610539443	-2.434114974257992	-0.8241038470533425	13.67980324945955	0.03014161378069296	2.513566714212244	-4.021169618702148	6.79730061286316	6.797300612863	1.769522868262911	-0.2038175327670468	-0.4298641191334099	-0.1316345608301635	9.537189923200121e-09	2.792820289769823e-07	-2.632552692646906e-08	1.907450322768094e-08	-7.831229297684975e-08	6.374703416599939e-08	4.283000771593159e-08
0.02	0.04942535223837459	0.1061020357976637	0.9039100133547361	0.129476070536212	-0.3598442988194642	-0.2402400050318171	-0.2152989069068156	0.2065420455059533	0.2065420455059514	-0.1525816324187305	-0.1704426579129949	0.09015939267750164	0.09025301414990228	-0.1171575972644706	-0.04875363572928296	-0.01667808007518458	0.2759333913694468	0.000480160702744109	0.0494445410779832	-0.07896077882691506	0.1372247374447103	0.1372247374447121	0.03553019081665191	-0.005374875875123608	-0.008308905969120298	-0.002666407376300689	0.1121501795578001	-0.06879039175598657	-0.006122110751347282	-0.2123987088617678	0.0921715530747115	-0.04602133261883608	-0.05069149301234583	-0.477512560068101	18.40040077497283	-1.306683938346938	17.37456340466976	-450.4807648532168	-76.9646171881282	-26.4403555504782	-5.894898273890907	-2.359109646920903	-0.8391880974620034	13.66352903495814	0.01125275744630509	2.32267511650028	-3.616628922388684	6.759736389537041	6.759736389538012	1.725977226179847	-0.3710396862060445	-0.376841084746293	-0.1333559306155694	1.47672676667869e-09	3.400434814392286e-07	-2.353010725470555e-09	3.255431925827211e-08	-2.39812386159367e-07	3.460025638778576e-08	5.445075807131259e-08
0.03	0.04796819418509783	0.1054979050053175	0.9037022020812981	0.1329017275992482	-0.3598383876011549	-0.2396269798474707	-0.2162731964095587	0.2082431979380243	0.2082431979380173	-0.1521417348479712	-0.1705089049565243	0.09005611238493674	0.09021982884374784	-0.1740159885061854	-0.07196925292043407	-0.02488104826558901	0.4085862501410074	0.0006940985512375078	0.07307721253748982	-0.1156136472914434	0.2026859581896973	0.2026859581897013	0.0523274356943628	-0.007819968445511402	-0.01234776074310759	-0.003978437793863356	0.1082648289228835	-0.06456014449632193	-0.005560227509653668	-0.2089567285564511	0.08996385178309313	-0.04812967057634066	-0.04766769634113475	-1.241974460910733	19.37327572204282	-1.374258717625578	17.33781623923396	-449.691110884776	-74.17297546180663	-26.43851908199043	-5.542600439761788	-2.28729071727247	-0.8104308427928668	12.97440024426072	0.02521313213611054	2.371081474833176	-3.647094643707927	6.391335363141911	6.391335363141534	1.638374418534777	-0.1730679706754367	-0.4174852161226688	-0.1313477224515005	-1.566955572716274e-09	3.720514356607805e-07	7.204171756822121e-09	3.788805526487431e-08	-3.391168227010813e-07	1.65459979854e-08	6.20420267493715e-08
0.04	0.04595019404130872	0.1046647174486474	0.9034124451933632	0.1376355604391931	-0.3598305872376408	-0.2387801242856954	-0.217605510363994	0.2105893666667672	0.2105893666667645	-0.1515375095684381	-0.1705979677114156	0.08991242803615213	0.09017327900839281	-0.229326015365877	-0.09456498859406762	-0.03306720297457438	0.5375685467527943	0.000857989743140126	0.09621061656328821	-0.1505656691648759	0.2662279967811794	0.2662279967811768	0.06839573257079509	-0.009938018144711283	-0.01638971721300524	-0.005339313216422731	0.1043794782879046	-0.06032989723665407	-0.004998344267898197	-0.2055147482511783	0.08775615049146425	-0.05023800853384584	-0.0446438996699647	-1.977532088318343	20.34592108727256	-1.447316513551054	17.37613294494325	-448.3185457927685	-71.26133348309065	-26.43544544785482	-5.585225397486144	-2.2351333434175	-0.8358254011781872	12.92941660300341	0.001243426128142083	2.222821629758633	-3.276459604169427	6.3758999588361	6.375899958835285	1.580187625924116	-0.3056311119684888	-0.3774614239284912	-0.1431249316149584	-4.507199132376669e-09	4.034665342485037e-07	1.646413086347138e-08	4.305383085861076e-08	-4.371388745697893e-07	-1.27954867727796e-09	6.955021333099078e-08
0.05	0.04338598860681399	0.103608651787855	0.9030406542650904	0.1436420689498725	-0.3598213238720487	-0.237705477014807	-0.2192781101174317	0.2135618777062374	0.2135618777062329	-0.1507760315607025	-0.1707076457071402	0.0897283726935706	0.09011299023372825	-0.2832704729775439	-0.1165432433386048	-0.04130413055103666	0.6631241084231654	0.0009920488839716491	0.1186120271315925	-0.1836696824943936	0.3279368501542744	0.3279368501542845	0.08377345041502519	-0.01194974183845558	-0.02043254285266924	-0.006723347140750883	0.1000869753715934	-0.05966256389274311	-0.004332685807379606	-0.2022545441494168	0.085016086226231	-0.04895150962208992	-0.04141038191962527	-2.666588436260403	19.8125513093789	-1.253435943839254	17.21534512486543	-446.8553290945681	-71.45426166636086	-26.43074204231697	-5.26235718606387	-2.163427853889925	-0.8196868364001535	12.27727128258432	0.01902589826903974	2.232789506307909	-3.284682342884687	6.017759912164724	6.017759912167049	1.497674566251642	-0.1417744027196568	-0.4193547912354249	-0.1368440812755548	-6.481330391646418e-09	3.870258261447178e-07	1.69330639640025e-08	4.453998244220624e-08	-4.912405078507086e-07	-1.831941026632059e-08	7.06437646362435e-08
